<svg xmlns="http://www.w3.org/2000/svg" viewBox="0 0 21 21" fill="none">
  <symbol id="floppy">
    <path d="M0 0H3V3H0V0Z" fill="currentColor"/>
    <path d="M3 0H6V3H3V0Z" fill="currentColor"/>
    <path d="M6 0H9V3H6V0Z" fill="currentColor"/>
    <path d="M9 0H12V3H9V0Z" fill="currentColor"/>
    <path d="M12 0H15V3H12V0Z" fill="currentColor"/>
    <path d="M15 0H18V3H15V0Z" fill="currentColor"/>
    <path d="M0 3H3V6H0V3Z" fill="currentColor"/>
    <path d="M18 3H21V6H18V3Z" fill="currentColor"/>
    <path d="M0 6H3V9H0V6Z" fill="currentColor"/>
    <path d="M3 6H6V9H3V6Z" fill="currentColor"/>
    <path d="M6 6H9V9H6V6Z" fill="currentColor"/>
    <path d="M9 6H12V9H9V6Z" fill="currentColor"/>
    <path d="M18 6H21V9H18V6Z" fill="currentColor"/>
    <path d="M0 9H3V12H0V9Z" fill="currentColor"/>
    <path d="M18 9H21V12H18V9Z" fill="currentColor"/>
    <path d="M0 12H3V15H0V12Z" fill="currentColor"/>
    <path d="M18 12H21V15H18V12Z" fill="currentColor"/>
    <path d="M0 15H3V18H0V15Z" fill="currentColor"/>
    <path d="M3 15H6V18H3V15Z" fill="currentColor"/>
    <path d="M6 15H9V18H6V15Z" fill="currentColor"/>
    <path d="M9 15H12V18H9V15Z" fill="currentColor"/>
    <path d="M12 15H15V18H12V15Z" fill="currentColor"/>
    <path d="M15 15H18V18H15V15Z" fill="currentColor"/>
    <path d="M18 15H21V18H18V15Z" fill="currentColor"/>
    <path d="M0 18H3V21H0V18Z" fill="currentColor"/>
    <path d="M3 18H6V21H3V18Z" fill="currentColor"/>
    <path d="M6 18H9V21H6V18Z" fill="currentColor"/>
    <path d="M9 18H12V21H9V18Z" fill="currentColor"/>
    <path d="M12 18H15V21H12V18Z" fill="currentColor"/>
    <path d="M15 18H18V21H15V18Z" fill="currentColor"/>
    <path d="M18 18H21V21H18V18Z" fill="currentColor"/>
  </symbol>
</svg>
